<?xml version="1.0" encoding="utf-8"?>
<!-- Generator: Adobe Illustrator 24.3.0, SVG Export Plug-In . SVG Version: 6.00 Build 0)  -->
<svg version="1.1" id="Layer_1" xmlns="http://www.w3.org/2000/svg" xmlns:xlink="http://www.w3.org/1999/xlink" x="0px" y="0px"
	 viewBox="0 0 639.1 224.8" style="enable-background:new 0 0 639.1 224.8;" xml:space="preserve">
<g>
	<path d="M182.2,1.5l78,79.7h0.4V1.5h7.9v90.8h-9.1l-77.6-79.2h-0.3v79.2h-7.9V1.5H182.2z"/>
	<path d="M396.3,46.9c0,19.3-9,46.9-54.9,46.9c-46.4,0-54.9-28.5-54.9-46.9c0-19,8.9-46.9,54.9-46.9C387.9,0,396.3,28.6,396.3,46.9z
		 M304.8,17.7c-7,8-9.4,18.6-9.4,29.2c0,31.3,20.4,39.8,46,39.8c25.5,0,46-8.5,46-39.8c0-28.5-17.6-39.8-46-39.8
		C338.4,7.1,313.4,7.9,304.8,17.7z"/>
	<path d="M418.1,80.2v12c0,6.3-1.1,11.8-8.1,16.9l-3.3-4.4c4.6-3.5,5.5-5.5,5.6-12.4h-4.9v-12H418.1z"/>
	<path d="M8.6,132.5v83.2h71.1v7.6H0v-90.8H8.6z"/>
	<path d="M105.5,194.6l-11.5,28.6h-9.3l37-89.4h34.6l38.8,89.4h-9.8l-11.9-28.6H105.5z M170.5,187l-19-45.4H127L108.1,187H170.5z"/>
	<path d="M269.9,132.5c7.5,0,13.9,1.6,18.4,4.9c5.7,4.3,9,11.7,9,19.3c0,13.3-8.2,22.4-26.4,24.1v0.3c6.8,3.3,10.1,5.5,16.7,15.6
		l17.2,26.6h-11l-13.3-20.9c-11.9-18.6-16.7-20.8-39.8-20.8h-25.9v41.7h-8.6v-90.8H269.9z M214.9,140.1V174h49.3
		c5.4,0,24.2,0.1,24.2-17.1c0-16-16.1-16.7-23.8-16.7H214.9z"/>
	<path d="M418.3,178v33.7c-9.4,6.8-20,13.1-50.4,13.1c-36.1,0-58.2-13.9-58.2-45.8c0-32.4,20-48,57.8-48c42,0,47.7,19.4,49.6,25.9
		l-8.4,2.5c-1.6-4.8-7-21.3-41.7-21.3c-35.4,0-48.4,16.6-48.4,40.1c0,30.5,21.2,39.5,48.5,39.5c23.6,0,34-3.5,42.7-10v-22.1h-41.4
		V178H418.3z"/>
	<path d="M517.4,172.8v7.6h-71.1v35.2h76.6v7.6h-85.2v-90.8h83.4v7.6h-74.8v32.7H517.4z"/>
	<path d="M604.1,132.5c7.5,0,13.9,1.6,18.4,4.9c5.7,4.3,9,11.7,9,19.3c0,13.3-8.2,22.4-26.4,24.1v0.3c6.8,3.3,10.1,5.5,16.7,15.6
		l17.2,26.6h-11l-13.3-20.9c-11.9-18.6-16.7-20.8-39.8-20.8h-25.9v41.7h-8.6v-90.8H604.1z M549.1,140.1V174h49.3
		c5.5,0,24.2,0.1,24.2-17.1c0-16-16.1-16.7-23.8-16.7H549.1z"/>
</g>
</svg>
