<?xml version="1.0" encoding="utf-8"?>
<!-- Generator: Adobe Illustrator 24.3.0, SVG Export Plug-In . SVG Version: 6.00 Build 0)  -->
<svg version="1.1" id="Layer_1" xmlns="http://www.w3.org/2000/svg" xmlns:xlink="http://www.w3.org/1999/xlink" x="0px" y="0px"
	 viewBox="0 0 1370.3 385.1" style="enable-background:new 0 0 1370.3 385.1;" xml:space="preserve">
<g>
	<g>
		<path d="M276.5,79.8V137c-15.9,11.6-34,22.1-85.6,22.1c-61.3,0-98.7-23.7-98.7-77.6c0-55,34-81.5,98-81.5
			c71.2,0,80.8,32.9,84.1,43.9l-14.2,4.3C257.4,40,248.3,12,189.4,12c-60,0-82.1,28.2-82.1,67.9c0,51.8,35.9,67.1,82.3,67.1
			c40,0,57.6-6,72.5-17V92.7h-70.3V79.8H276.5z"/>
		<path d="M444.7,71v12.9H324v59.8h129.9v12.9H309.4V2.6h141.5v12.9H324V71H444.7z"/>
		<path d="M622,2.6v13.5h-68.6v140.4h-14.6V16.1h-68.6V2.6H622z"/>
		<path d="M885.4,79.6c0,32.7-15.3,79.6-93.1,79.6c-78.7,0-93.1-48.4-93.1-79.6c0-32.3,15.1-79.6,93.1-79.6
			C871.2,0,885.4,48.6,885.4,79.6z M730.2,30.1c-11.8,13.5-15.9,31.6-15.9,49.5c0,53.1,34.6,67.5,78,67.5c43.2,0,78-14.4,78-67.5
			c0-48.4-29.9-67.5-78-67.5C787.2,12,744.8,13.3,730.2,30.1z"/>
		<path d="M1050.6,2.6v12.9H931.2v55.7h108.2v12.9H931.2v72.5h-14.6V2.6H1050.6z"/>
		<path d="M1213.1,2.6v12.9h-119.3v55.7h108.2v12.9h-108.2v72.5h-14.6V2.6H1213.1z"/>
		<path d="M14.6,228.6v98.7c0,13.8,0.6,45.8,66,45.8c55,0,65.6-20.2,65.6-45.6v-98.9h14.6V326c0,37.4-18.5,59.1-80,59.1
			C17.2,385.1,0,364.3,0,326v-97.4H14.6z"/>
		<path d="M306.4,228.6c12.7,0,23.7,2.8,31.2,8.4c9.7,7.3,15.3,19.8,15.3,32.7c0,22.6-14,38.1-44.7,40.9v0.4
			c11.6,5.6,17.2,9.2,28.4,26.4l29.2,45.2H347l-22.6-35.5c-20.2-31.6-28.4-35.3-67.5-35.3h-43.9v70.7h-14.6V228.6H306.4z
			 M213.1,241.5v57.4h83.6c9.2,0,41.1,0.2,41.1-29c0-27.1-27.3-28.4-40.4-28.4H213.1z"/>
		<path d="M541.2,228.6c2.1,0,19.8,0,30.5,6.9c11,7.1,19.1,20.4,19.1,37.2c0,18.9-11.2,44.7-49.7,44.7h-81.9v65.1h-14.6V228.6H541.2
			z M459.3,241.5v63h77.8c16.3,0,38.7-4.7,38.7-31.6c0-31.2-28.2-31.4-38.7-31.4H459.3z"/>
		<path d="M765,295v-66.4h14.6v153.9H765v-74.6H633.4v74.6h-14.6V228.6h14.6V295H765z"/>
		<path d="M996.6,305.6c0,32.7-15.3,79.6-93.1,79.6c-78.7,0-93.1-48.4-93.1-79.6c0-32.3,15.1-79.6,93.1-79.6
			C982.4,226,996.6,274.6,996.6,305.6z M841.4,256.1c-11.8,13.5-15.9,31.6-15.9,49.5c0,53.1,34.6,67.5,78,67.5
			c43.2,0,78-14.4,78-67.5c0-48.4-29.9-67.5-78-67.5C898.3,238,856,239.3,841.4,256.1z"/>
		<path d="M1042,228.6l132.2,135.2h0.6V228.6h13.3v153.9h-15.5l-131.6-134.4h-0.4v134.4h-13.3V228.6H1042z"/>
		<path d="M1361.1,297v12.9h-120.6v59.8h129.9v12.9h-144.5V228.6h141.5v12.9h-126.9V297H1361.1z"/>
	</g>
</g>
</svg>
