<?xml version="1.0" encoding="utf-8"?>
<!-- Generator: Adobe Illustrator 24.3.0, SVG Export Plug-In . SVG Version: 6.00 Build 0)  -->
<svg version="1.1" id="Layer_1" xmlns="http://www.w3.org/2000/svg" xmlns:xlink="http://www.w3.org/1999/xlink" x="0px" y="0px"
	 viewBox="0 0 1713.7 837.1" style="enable-background:new 0 0 1713.7 837.1;" xml:space="preserve">
<g>
	<path d="M57.7,2.6l33.3,133.3h0.4L127,19.8h60.8L223.3,135h0.4L257.9,2.6h14l-41.3,153.9h-14.4L177.3,31.8h-39.1L98.4,156.5H84
		L42.9,2.6H57.7z"/>
	<path d="M439.4,69V2.6H454v153.9h-14.6V81.9H307.8v74.6h-14.6V2.6h14.6V69H439.4z"/>
	<path d="M671,79.6c0,32.7-15.3,79.6-93.1,79.6c-78.7,0-93.1-48.4-93.1-79.6c0-32.3,15.1-79.6,93.1-79.6C656.8,0,671,48.6,671,79.6z
		 M515.7,30.1c-11.8,13.5-15.9,31.6-15.9,49.5c0,53.1,34.6,67.5,78,67.5c43.2,0,78-14.4,78-67.5c0-48.4-29.9-67.5-78-67.5
		C572.7,12,530.3,13.3,515.7,30.1z"/>
	<path d="M776.3,2.6v141h120.6v12.9H761.7V2.6H776.3z"/>
	<path d="M1083.6,79.6c0,32.7-15.3,79.6-93.1,79.6c-78.7,0-93.1-48.4-93.1-79.6c0-32.3,15.1-79.6,93.1-79.6
		C1069.4,0,1083.6,48.6,1083.6,79.6z M928.3,30.1c-11.8,13.5-15.9,31.6-15.9,49.5c0,53.1,34.6,67.5,78,67.5c43.2,0,78-14.4,78-67.5
		c0-48.4-29.9-67.5-78-67.5C985.3,12,943,13.3,928.3,30.1z"/>
	<path d="M1293.9,79.6c0,32.7-15.3,79.6-93.1,79.6c-78.7,0-93.1-48.4-93.1-79.6c0-32.3,15.1-79.6,93.1-79.6
		C1279.7,0,1293.9,48.6,1293.9,79.6z M1138.6,30.1c-11.8,13.5-15.9,31.6-15.9,49.5c0,53.1,34.6,67.5,78,67.5c43.2,0,78-14.4,78-67.5
		c0-48.4-29.9-67.5-78-67.5C1195.6,12,1153.2,13.3,1138.6,30.1z"/>
	<path d="M1339.5,2.6v82.8l129.9-82.8h19.8l-92.9,63l95.7,90.9h-19.1l-90.5-84.3l-42.8,27.3v57h-14.6V2.6H1339.5z"/>
	<path d="M1637.5,43.9c-0.4-7.1-2.8-31.8-57.8-31.8c-43.6,0-57.4,12-57.4,27.7c0,20.2,19.1,27.5,57.6,29.2
		c46,2.2,76.3,11.6,76.3,44.9c0,17.2-11.4,45.2-75.9,45.2c-50.7,0-75-11-78.5-48.8l14.4-1.3c0.6,5.8,1.5,13.1,6.2,20.6
		c9.5,15.1,26,17.4,56.8,17.4c43.6,0,62.8-11,62.8-32.3c0-23.2-26-29.2-61.5-30.5c-42.1-1.5-72.5-10.3-72.5-43.2
		c0-21.9,16.6-41.1,70.5-41.1c37.4,0,55.5,3.7,65.4,18.3c6.7,9.7,7.3,18.1,7.7,24.9L1637.5,43.9z"/>
	<path d="M398,333.9l-19.6,48.6h-15.7l62.8-151.6h58.7L550,382.5h-16.6l-20.2-48.6H398z M508.3,321l-32.3-77h-41.5l-32,77H508.3z"/>
	<path d="M689.1,228.6v13.5h-68.6v140.4h-14.6V242.1h-68.6v-13.5H689.1z"/>
	<path d="M789.5,333.9L770,382.5h-15.7l62.8-151.6h58.7l65.8,151.6H925l-20.2-48.6H789.5z M899.8,321l-32.3-77h-41.5l-32,77H899.8z"
		/>
	<path d="M1068.4,228.6c12.7,0,23.7,2.8,31.2,8.4c9.7,7.3,15.3,19.8,15.3,32.7c0,22.6-14,38.1-44.7,40.9v0.4
		c11.6,5.6,17.2,9.2,28.4,26.4l29.2,45.2h-18.7l-22.6-35.5c-20.2-31.6-28.4-35.3-67.5-35.3h-43.9v70.7h-14.6V228.6H1068.4z
		 M975.1,241.5v57.4h83.6c9.2,0,41.1,0.2,41.1-29c0-27.1-27.3-28.4-40.4-28.4H975.1z"/>
	<path d="M1279.1,228.6v13.5h-68.6v140.4h-14.6V242.1h-68.6v-13.5H1279.1z"/>
	<path d="M151.5,454.6l33.3,133.3h0.4l35.5-116.1h60.8L317,587h0.4l34.2-132.4h14l-41.3,153.9h-14.4L271,483.8h-39.1l-39.8,124.7
		h-14.4l-41.1-153.9H151.5z"/>
	<path d="M522.4,523v12.9H401.8v59.8h129.9v12.9H387.1V454.6h141.5v12.9H401.8V523H522.4z"/>
	<path d="M561.1,454.6h101.1c47.1,0,47.7,34.8,47.7,38.9c0,21.7-15.5,30.3-22.1,34c9,3.2,29.5,10.1,29.5,37.8
		c0,19.4-12.5,43.2-48.6,43.2H561.1V454.6z M575.7,522.3h88.4c24.9,0,31.2-16.6,31.2-28c0-26.4-25.4-26.7-38.7-26.7h-80.8V522.3z
		 M575.7,535.2v60.4h91.4c28.2,0,35-17.6,35-30.3c0-15.9-11-30.1-34.4-30.1H575.7z"/>
	<path d="M874.2,495.9c-0.4-7.1-2.8-31.8-57.8-31.8c-43.6,0-57.4,12-57.4,27.7c0,20.2,19.1,27.5,57.6,29.2
		c46,2.2,76.3,11.6,76.3,44.9c0,17.2-11.4,45.2-75.9,45.2c-50.7,0-75-11-78.5-48.8l14.4-1.3c0.6,5.8,1.5,13.1,6.2,20.6
		c9.5,15.1,26,17.4,56.8,17.4c43.6,0,62.8-11,62.8-32.3c0-23.2-26-29.2-61.5-30.5c-42.1-1.5-72.5-10.3-72.5-43.2
		c0-21.9,16.6-41.1,70.5-41.1c37.4,0,55.5,3.7,65.4,18.3c6.7,9.7,7.3,18.1,7.7,24.9L874.2,495.9z"/>
	<path d="M1059.5,466.8h-69.9v129.7h69.9v12H905.5v-12H975V466.8h-69.4v-12.3H975c4.9,0,9.7,0,14.6,0h69.9V466.8z"/>
	<path d="M1218.8,454.6v13.5h-68.6v140.4h-14.6V468.1H1067v-13.5H1218.8z"/>
	<path d="M1378.4,523v12.9h-120.6v59.8h129.9v12.9h-144.5V454.6h141.5v12.9h-126.9V523H1378.4z"/>
	<path d="M1543.7,495.9c-0.4-7.1-2.8-31.8-57.8-31.8c-43.6,0-57.4,12-57.4,27.7c0,20.2,19.1,27.5,57.6,29.2
		c46,2.2,76.3,11.6,76.3,44.9c0,17.2-11.4,45.2-75.9,45.2c-50.7,0-75-11-78.5-48.8l14.4-1.3c0.6,5.8,1.5,13.1,6.2,20.6
		c9.5,15.1,26,17.4,56.8,17.4c43.6,0,62.8-11,62.8-32.3c0-23.2-26-29.2-61.5-30.5c-42.1-1.5-72.5-10.3-72.5-43.2
		c0-21.9,16.6-41.1,70.5-41.1c37.4,0,55.5,3.7,65.4,18.3c6.7,9.7,7.3,18.1,7.7,24.9L1543.7,495.9z"/>
	<path d="M186.2,757.6c0,32.7-15.3,79.6-93.1,79.6C14.4,837.1,0,788.7,0,757.6C0,725.3,15.1,678,93.1,678
		C172,678,186.2,726.6,186.2,757.6z M31,708.1c-11.8,13.5-15.9,31.6-15.9,49.5c0,53.1,34.6,67.5,78,67.5c43.2,0,78-14.4,78-67.5
		c0-48.4-29.9-67.5-78-67.5C87.9,690,45.6,691.3,31,708.1z"/>
	<path d="M231.6,680.6l132.2,135.2h0.6V680.6h13.3v153.9h-15.5L230.7,700.1h-0.4v134.4H217V680.6H231.6z"/>
	<path d="M491.5,785.9L472,834.5h-15.7l62.8-151.6h58.7l65.8,151.6H627l-20.2-48.6H491.5z M601.8,773l-32.3-77h-41.5l-32,77H601.8z"
		/>
	<path d="M860.5,680.6v13.5h-68.6v140.4h-14.6V694.1h-68.6v-13.5H860.5z"/>
	<path d="M881.1,785.9l-19.6,48.6h-15.7l62.8-151.6h58.7l65.8,151.6h-16.6l-20.2-48.6H881.1z M991.4,773l-32.3-77h-41.5l-32,77
		H991.4z"/>
	<path d="M1051.7,680.6h101.1c47.1,0,47.7,34.8,47.7,38.9c0,21.7-15.5,30.3-22.1,34c9,3.2,29.5,10.1,29.5,37.8
		c0,19.4-12.5,43.2-48.6,43.2h-107.5V680.6z M1066.3,748.3h88.4c24.9,0,31.2-16.6,31.2-28c0-26.4-25.4-26.7-38.7-26.7h-80.8V748.3z
		 M1066.3,761.2v60.4h91.4c28.2,0,35-17.6,35-30.3c0-15.9-11-30.1-34.4-30.1H1066.3z"/>
	<path d="M1253.1,680.6v141h120.6v12.9h-135.2V680.6H1253.1z"/>
	<path d="M1536.3,749v12.9h-120.6v59.8h129.9v12.9h-144.5V680.6h141.5v12.9h-126.9V749H1536.3z"/>
	<path d="M1713.7,680.6v13.5h-68.6v140.4h-14.6V694.1h-68.6v-13.5H1713.7z"/>
</g>
</svg>
