<?xml version="1.0" encoding="utf-8"?>
<!-- Generator: Adobe Illustrator 24.3.0, SVG Export Plug-In . SVG Version: 6.00 Build 0)  -->
<svg version="1.1" id="Layer_1" xmlns="http://www.w3.org/2000/svg" xmlns:xlink="http://www.w3.org/1999/xlink" x="0px" y="0px"
	 viewBox="0 0 995.7 439.7" style="enable-background:new 0 0 995.7 439.7;" xml:space="preserve">
<style type="text/css">
	.st0{fill:#00FF00;}
</style>
<g>
	<path class="st0" d="M92.3,0v8.5H14V45h71v8.5H14V101H4.4V0H92.3z"/>
	<path class="st0" d="M181.7,0c8.3,0,15.5,1.8,20.5,5.5c6.3,4.8,10,13,10,21.4c0,14.8-9.2,25-29.3,26.8V54
		c7.6,3.7,11.3,6.1,18.6,17.4l19.2,29.6h-12.3l-14.8-23.3C180.3,57,175,54.6,149.3,54.6h-28.8V101h-9.6V0H181.7z M120.5,8.5v37.7
		h54.9c6.1,0,26.9,0.1,26.9-19c0-17.8-17.9-18.6-26.5-18.6H120.5z"/>
	<path class="st0" d="M322,44.9v8.5h-79.2v39.2H328v8.5h-94.8V0h92.8v8.5h-83.2v36.4H322z"/>
	<path class="st0" d="M436.4,44.9v8.5h-79.2v39.2h85.2v8.5h-94.8V0h92.8v8.5h-83.2v36.4H436.4z"/>
	<path class="st0" d="M558,0v8.2l-94.3,84.4h95.7v8.5H452.6v-8.9l93.5-83.7h-87.8V0H558z"/>
	<path class="st0" d="M666.7,44.9v8.5h-79.2v39.2h85.2v8.5h-94.8V0h92.8v8.5h-83.2v36.4H666.7z"/>
	<path class="st0" d="M709.4,87.6V101h-12V87.6H709.4z M708.6,0v22.7l-2.4,53.3h-5.6l-2.4-53.3V0H708.6z"/>
	<path class="st0" d="M778.3,0h66.3c30.9,0,31.3,22.9,31.3,25.5c0,14.3-10.2,19.9-14.5,22.3c5.9,2.1,19.3,6.6,19.3,24.8
		c0,12.7-8.2,28.4-31.9,28.4h-70.5V0z M787.9,44.4h58c16.4,0,20.5-10.9,20.5-18.3c0-17.4-16.7-17.5-25.4-17.5h-53.1V44.4z
		 M787.9,52.9v39.6h60c18.5,0,23-11.6,23-19.9c0-10.4-7.2-19.8-22.6-19.8H787.9z"/>
	<path class="st0" d="M989.6,44.9v8.5h-79.2v39.2h85.2v8.5h-94.8V0h92.8v8.5h-83.2v36.4H989.6z"/>
	<path class="st0" d="M23.1,238.5l-12.8,31.9H0l41.2-99.5h38.5l43.2,99.5H112l-13.3-31.9H23.1z M95.5,230l-21.2-50.5H47.1l-21,50.5
		H95.5z"/>
	<path class="st0" d="M262.6,169.3v8.5h-78.3v36.5h71v8.5h-71v47.5h-9.6v-101H262.6z"/>
	<path class="st0" d="M398.9,219.8c0,21.4-10,52.2-61.1,52.2c-51.6,0-61.1-31.7-61.1-52.2c0-21.2,9.9-52.2,61.1-52.2
		C389.6,167.6,398.9,199.5,398.9,219.8z M297,187.4c-7.8,8.9-10.4,20.7-10.4,32.5c0,34.9,22.7,44.3,51.2,44.3
		c28.4,0,51.2-9.5,51.2-44.3c0-31.7-19.6-44.3-51.2-44.3C334.4,175.5,306.6,176.4,297,187.4z"/>
	<path class="st0" d="M490,169.3c8.3,0,15.5,1.8,20.5,5.5c6.3,4.8,10,13,10,21.4c0,14.8-9.2,25-29.3,26.8v0.3
		c7.6,3.7,11.3,6.1,18.6,17.4l19.2,29.6h-12.3l-14.8-23.3c-13.3-20.7-18.6-23.1-44.3-23.1h-28.8v46.4h-9.6v-101H490z M428.8,177.8
		v37.7h54.9c6.1,0,26.9,0.1,26.9-19c0-17.8-17.9-18.6-26.5-18.6H428.8z"/>
	<path class="st0" d="M630.3,214.2v8.5h-79.2v39.2h85.2v8.5h-94.8v-101h92.8v8.5h-83.2v36.4H630.3z"/>
	<path class="st0" d="M654.5,169.3l33.2,90.7h25.7l34.3-90.7h9.5l-37.7,101h-38.1l-37-101H654.5z"/>
	<path class="st0" d="M859.1,214.2v8.5H780v39.2h85.2v8.5h-94.8v-101h92.8v8.5H780v36.4H859.1z"/>
	<path class="st0" d="M955.6,169.3c8.3,0,15.5,1.8,20.5,5.5c6.3,4.8,10,13,10,21.4c0,14.8-9.2,25-29.3,26.8v0.3
		c7.6,3.7,11.3,6.1,18.6,17.4l19.2,29.6h-12.3l-14.8-23.3c-13.3-20.7-18.6-23.1-44.3-23.1h-28.8v46.4h-9.6v-101H955.6z M894.4,177.8
		v37.7h54.9c6.1,0,26.9,0.1,26.9-19c0-17.8-17.9-18.6-26.5-18.6H894.4z"/>
	<path class="st0" d="M257.5,338.6l45.9,87.5l46.3-87.5h14.3v101h-8.7v-91.3h-0.4l-47.4,91.3h-8l-46.8-91.3H252v91.3h-8.7v-101
		H257.5z"/>
	<path class="st0" d="M478.9,346.7H433v85.1h45.9v7.9h-101v-7.9h45.6v-85.1h-45.6v-8h45.6c3.2,0,6.3,0,9.6,0h45.9V346.7z"/>
	<path class="st0" d="M502.2,338.6l86.8,88.8h0.4v-88.8h8.7v101h-10.2l-86.4-88.2h-0.3v88.2h-8.7v-101H502.2z"/>
	<path class="st0" d="M711.5,383.5v8.5h-79.2v39.2h85.2v8.5h-94.8v-101h92.8v8.5h-83.2v36.4H711.5z"/>
	<path class="st0" d="M750.5,426.3v13.4h-12.1v-13.4H750.5z"/>
</g>
</svg>
